HIERARCHY
ROOT Hips
{
    OFFSET   0.000000   0.000000   0.000000
    CHANNELS 6 Xposition Yposition Zposition Zrotation Xrotation Yrotation
    JOINT Chest
    {
        OFFSET   0.000000   8.007240   0.000000
        CHANNELS 3 Zrotation Xrotation Yrotation
        JOINT Chest2
        {
            OFFSET   0.000000  22.077100   0.000000
            CHANNELS 3 Zrotation Xrotation Yrotation
            JOINT Neck
            {
                OFFSET   0.000000  23.254800   0.000000
                CHANNELS 3 Zrotation Xrotation Yrotation
                JOINT Head
                {
                    OFFSET   0.000000  14.370000   1.956600
                    CHANNELS 3 Zrotation Xrotation Yrotation
                    End Site
                    {
                        OFFSET   0.000000  19.566000   0.000000
                    }
                }
            }
            JOINT LeftCollar
            {
                OFFSET   3.911900  19.017000  -0.467064
                CHANNELS 3 Zrotation Xrotation Yrotation
                JOINT LeftShoulder
                {
                    OFFSET  10.383700   0.000000   0.000000
                    CHANNELS 3 Zrotation Xrotation Yrotation
                    JOINT LeftElbow
                    {
                        OFFSET  26.662100   0.001476   0.000517
                        CHANNELS 3 Zrotation Xrotation Yrotation
                        JOINT LeftWrist
                        {
                            OFFSET  28.869000  -0.000025  -0.000106
                            CHANNELS 3 Zrotation Xrotation Yrotation
                            JOINT LeftFinger0
                            {
                                OFFSET   2.044660  -2.323460   3.252850
                                CHANNELS 3 Zrotation Xrotation Yrotation
                                JOINT LeftFinger01
                                {
                                    OFFSET   3.088130   0.000000   0.000000
                                    CHANNELS 3 Zrotation Xrotation Yrotation
                                    JOINT LeftFinger02
                                    {
                                        OFFSET   2.639460   0.000000   0.000000
                                        CHANNELS 3 Zrotation Xrotation Yrotation
                                        End Site
                                        {
                                            OFFSET   2.582190   0.000000   0.000000
                                        }
                                    }
                                }
                            }
                            JOINT LeftFinger1
                            {
                                OFFSET   8.364480   0.000000   3.252850
                                CHANNELS 3 Zrotation Xrotation Yrotation
                                JOINT LeftFinger11
                                {
                                    OFFSET   4.646930   0.000000   0.000000
                                    CHANNELS 3 Zrotation Xrotation Yrotation
                                    JOINT LeftFinger12
                                    {
                                        OFFSET   2.323460   0.000000   0.000000
                                        CHANNELS 3 Zrotation Xrotation Yrotation
                                        End Site
                                        {
                                            OFFSET   2.273050   0.000000   0.000000
                                        }
                                    }
                                }
                            }
                            JOINT LeftFinger2
                            {
                                OFFSET   8.364490   0.000015   1.078090
                                CHANNELS 3 Zrotation Xrotation Yrotation
                                JOINT LeftFinger21
                                {
                                    OFFSET   5.111620   0.000000   0.000000
                                    CHANNELS 3 Zrotation Xrotation Yrotation
                                    JOINT LeftFinger22
                                    {
                                        OFFSET   2.788160   0.000016   0.000000
                                        CHANNELS 3 Zrotation Xrotation Yrotation
                                        End Site
                                        {
                                            OFFSET   2.727660   0.000000   0.000000
                                        }
                                    }
                                }
                            }
                            JOINT LeftFinger3
                            {
                                OFFSET   7.899780   0.000017  -1.078090
                                CHANNELS 3 Zrotation Xrotation Yrotation
                                JOINT LeftFinger31
                                {
                                    OFFSET   4.646930   0.000000   0.000000
                                    CHANNELS 3 Zrotation Xrotation Yrotation
                                    JOINT LeftFinger32
                                    {
                                        OFFSET   2.323470   0.000000   0.000000
                                        CHANNELS 3 Zrotation Xrotation Yrotation
                                        End Site
                                        {
                                            OFFSET   2.273050   0.000000   0.000000
                                        }
                                    }
                                }
                            }
                            JOINT LeftFinger4
                            {
                                OFFSET   7.435090   0.000000  -3.252850
                                CHANNELS 3 Zrotation Xrotation Yrotation
                                JOINT LeftFinger41
                                {
                                    OFFSET   3.717550   0.000000   0.000000
                                    CHANNELS 3 Zrotation Xrotation Yrotation
                                    JOINT LeftFinger42
                                    {
                                        OFFSET   1.858770   0.000000   0.000000
                                        CHANNELS 3 Zrotation Xrotation Yrotation
                                        End Site
                                        {
                                            OFFSET   1.818440   0.000000   0.000000
                                        }
                                    }
                                }
                            }
                        }
                    }
                }
            }
            JOINT RightCollar
            {
                OFFSET  -3.911900  19.017000  -0.467063
                CHANNELS 3 Zrotation Xrotation Yrotation
                JOINT RightShoulder
                {
                    OFFSET -10.383700   0.000019   0.000000
                    CHANNELS 3 Zrotation Xrotation Yrotation
                    JOINT RightElbow
                    {
                        OFFSET -26.662100   0.001175   0.000102
                        CHANNELS 3 Zrotation Xrotation Yrotation
                        JOINT RightWrist
                        {
                            OFFSET -28.869000   0.000016  -0.000079
                            CHANNELS 3 Zrotation Xrotation Yrotation
                            JOINT RightFinger0
                            {
                                OFFSET  -2.044660  -2.323490   3.252850
                                CHANNELS 3 Zrotation Xrotation Yrotation
                                JOINT RightFinger01
                                {
                                    OFFSET  -3.088140   0.000000   0.000000
                                    CHANNELS 3 Zrotation Xrotation Yrotation
                                    JOINT RightFinger02
                                    {
                                        OFFSET  -2.639460   0.000000   0.000000
                                        CHANNELS 3 Zrotation Xrotation Yrotation
                                        End Site
                                        {
                                            OFFSET  -2.582190   0.000000   0.000000
                                        }
                                    }
                                }
                            }
                            JOINT RightFinger1
                            {
                                OFFSET  -8.364480   0.000000   3.252850
                                CHANNELS 3 Zrotation Xrotation Yrotation
                                JOINT RightFinger11
                                {
                                    OFFSET  -4.646930   0.000000   0.000000
                                    CHANNELS 3 Zrotation Xrotation Yrotation
                                    JOINT RightFinger12
                                    {
                                        OFFSET  -2.323470   0.000000   0.000000
                                        CHANNELS 3 Zrotation Xrotation Yrotation
                                        End Site
                                        {
                                            OFFSET  -2.273050   0.000000   0.000000
                                        }
                                    }
                                }
                            }
                            JOINT RightFinger2
                            {
                                OFFSET  -8.364480   0.000000   1.078090
                                CHANNELS 3 Zrotation Xrotation Yrotation
                                JOINT RightFinger21
                                {
                                    OFFSET  -5.111620   0.000000   0.000000
                                    CHANNELS 3 Zrotation Xrotation Yrotation
                                    JOINT RightFinger22
                                    {
                                        OFFSET  -2.788160   0.000000   0.000000
                                        CHANNELS 3 Zrotation Xrotation Yrotation
                                        End Site
                                        {
                                            OFFSET  -2.727660   0.000000   0.000000
                                        }
                                    }
                                }
                            }
                            JOINT RightFinger3
                            {
                                OFFSET  -7.899780   0.000000  -1.078090
                                CHANNELS 3 Zrotation Xrotation Yrotation
                                JOINT RightFinger31
                                {
                                    OFFSET  -4.646930   0.000000   0.000000
                                    CHANNELS 3 Zrotation Xrotation Yrotation
                                    JOINT RightFinger32
                                    {
                                        OFFSET  -2.323470   0.000000   0.000000
                                        CHANNELS 3 Zrotation Xrotation Yrotation
                                        End Site
                                        {
                                            OFFSET  -2.273050   0.000000   0.000000
                                        }
                                    }
                                }
                            }
                            JOINT RightFinger4
                            {
                                OFFSET  -7.435090   0.000000  -3.252850
                                CHANNELS 3 Zrotation Xrotation Yrotation
                                JOINT RightFinger41
                                {
                                    OFFSET  -3.717550   0.000000   0.000000
                                    CHANNELS 3 Zrotation Xrotation Yrotation
                                    JOINT RightFinger42
                                    {
                                        OFFSET  -1.858770   0.000000   0.000000
                                        CHANNELS 3 Zrotation Xrotation Yrotation
                                        End Site
                                        {
                                            OFFSET  -1.818440   0.000000   0.000000
                                        }
                                    }
                                }
                            }
                        }
                    }
                }
            }
        }
    }
    JOINT LeftHip
    {
        OFFSET   9.783040   0.000000   0.000000
        CHANNELS 3 Zrotation Xrotation Yrotation
        JOINT LeftKnee
        {
            OFFSET   0.000032 -41.789100  -0.002222
            CHANNELS 3 Zrotation Xrotation Yrotation
            JOINT LeftAnkle
            {
                OFFSET   0.000087 -41.133200  -0.000135
                CHANNELS 3 Zrotation Xrotation Yrotation
                JOINT LeftToe
                {
                    OFFSET   0.000000  -6.358960  14.674500
                    CHANNELS 3 Zrotation Xrotation Yrotation
                    End Site
                    {
                        OFFSET   0.000000   0.000000   3.913200
                    }
                }
            }
        }
    }
    JOINT RightHip
    {
        OFFSET  -9.783040   0.000000   0.000000
        CHANNELS 3 Zrotation Xrotation Yrotation
        JOINT RightKnee
        {
            OFFSET   0.000047 -41.789100  -0.000896
            CHANNELS 3 Zrotation Xrotation Yrotation
            JOINT RightAnkle
            {
                OFFSET  -0.000117 -41.133300  -0.000248
                CHANNELS 3 Zrotation Xrotation Yrotation
                JOINT RightToe
                {
                    OFFSET   0.000000  -6.358970  14.674500
                    CHANNELS 3 Zrotation Xrotation Yrotation
                    End Site
                    {
                        OFFSET   0.000000   0.000000   3.913200
                    }
                }
            }
        }
    }
}
MOTION
Frames: 6
Frame Time:   0.016667
 -0.744531  89.490000  -1.932390  -0.872397  -0.304571  -1.270910   0.948135   1.797120  -0.533055   1.914370   3.585100  -1.096620  -0.551440  -0.729489  -0.007420  -0.911807  -1.478330  -0.209707  -9.563230   2.642040   2.929370 -70.671600  10.535700  -4.347400   1.292830   4.835650 -18.166300   7.810190 -12.223800   6.849270  36.025000  27.431900 -54.656900 -33.813900   0.001461   0.003424 -11.906900  -0.008607  -0.001837 -33.940800   2.528300  -3.751360 -27.837300  -0.000814   0.001314 -19.482900  -0.001459  -0.000479 -28.658600  -0.593554   1.085820 -38.408100  -0.000744   0.004095 -25.579700  -0.003407   0.003911 -28.466800  -3.637920   6.693320 -38.696100   0.000222  -0.008410 -25.771600  -0.002232  -0.007135 -33.856000  -4.364880   6.472470 -51.154400   0.002388  -0.004445 -34.068800   0.000256  -0.003693  10.822400   1.344260   5.707890  69.190500   6.030780  -4.460360  -3.619750   5.015980  15.848600 -13.105700 -16.753600  -4.892540 -31.820300  23.645300  62.621300  34.936900   0.001751  -0.008048  12.468400   0.004548  -0.002348  33.965400   9.952170  14.389400  28.820300   0.007182  -0.007785  20.174200   0.003012  -0.008693  28.740000   5.047440   9.267020  42.104200   0.000192   0.011091  28.041400   0.010623   0.001030  29.206100   3.786690   6.748010  44.143400  -0.002154  -0.002208  29.399500   0.010788  -0.004997  39.581000  -0.953384  -1.153030  59.385900  -0.001859   0.007076  39.551000   0.001306  -0.005409   1.312250   2.801970   1.912100   0.084953  -0.005949  12.548100  -0.887808  -2.658640   2.514960  -0.000000   0.000000   0.000000  -0.874389   3.515370  -6.004110   1.688740   0.327119  -7.025130  -1.420100  -2.958510  -2.545720  -0.000000   0.000000   0.000000
 -0.761998  89.490000  -1.944970  -0.873102  -0.334904  -1.276390   0.945025   1.821900  -0.534894   1.908480   3.634640  -1.100630  -0.551210  -0.741106  -0.007416  -0.911548  -1.501760  -0.232576  -9.573630   2.619790   2.929190 -70.665500  10.564800  -4.362330   1.288030   4.828330 -18.138200   7.816770 -12.228900   6.838770  36.018500  27.422600 -54.675200 -33.813900   0.001461   0.003427 -11.906900  -0.008615  -0.001832 -33.939000   2.533160  -3.758290 -27.836200  -0.000815   0.001313 -19.482900  -0.001458  -0.000480 -28.658800  -0.586571   1.073040 -38.412600  -0.000746   0.004093 -25.582800  -0.003410   0.003909 -28.467300  -3.637970   6.685640 -38.701500   0.000222  -0.008409 -25.775200  -0.002232  -0.007134 -33.861200  -4.357280   6.459990 -51.161100   0.002390  -0.004446 -34.073300   0.000255  -0.003696  10.816300   1.322650   5.723690  69.191900   6.049130  -4.459160  -3.629000   5.026610  15.880800 -13.144600 -16.741400  -4.934410 -31.818500  23.641500  62.610000  34.946400   0.001741  -0.008057  12.473200   0.004547  -0.002354  33.987700   9.937940  14.355600  28.834900   0.007173  -0.007777  20.184400   0.003012  -0.008682  28.776400   5.047530   9.261260  42.155400   0.000192   0.011095  28.075500   0.010623   0.001029  29.210700   3.786690   6.748010  44.150500  -0.002169  -0.002225  29.404200   0.010775  -0.004992  39.600500  -0.958978  -1.158980  59.415300  -0.001875   0.007073  39.570600   0.001296  -0.005402   1.317520   2.820960   1.902120   0.087275  -0.001420  12.558600  -0.892974  -2.649730   2.515000  -0.000000   0.000000   0.000000  -0.854381   3.550470  -6.001580   1.678320   0.319462  -7.029380  -1.429150  -2.958920  -2.536260  -0.000000   0.000000   0.000000
 -0.790472  89.490000  -1.965660  -0.874317  -0.386803  -1.285050   0.939607   1.863400  -0.538590   1.898210   3.717620  -1.108570  -0.550981  -0.759030  -0.007412  -0.911615  -1.538100  -0.264712  -9.588990   2.584050   2.928920 -70.654900  10.611900  -4.384370   1.280480   4.815830 -18.098500   7.826040 -12.236400   6.820390  36.010500  27.418500 -54.697300 -33.814000   0.001462   0.003430 -11.907000  -0.008624  -0.001827 -33.934300   2.538010  -3.765420 -27.832700  -0.000816   0.001312 -19.482900  -0.001457  -0.000483 -28.659100  -0.579587   1.060250 -38.417100  -0.000751   0.004089 -25.585800  -0.003418   0.003907 -28.468100  -3.638060   6.674100 -38.706900   0.000223  -0.008404 -25.778800  -0.002234  -0.007130 -33.867200  -4.346210   6.442350 -51.167900   0.002396  -0.004447 -34.077800   0.000253  -0.003704  10.805600   1.289100   5.750060  69.193700   6.084490  -4.450070  -3.645860   5.036920  15.925300 -13.203900 -16.722700  -5.000750 -31.810300  23.629500  62.591800  34.960500   0.001724  -0.008075  12.480300   0.004544  -0.002374  34.020600   9.923700  14.321800  28.857700   0.007150  -0.007759  20.200300   0.003009  -0.008656  28.831800   5.047660   9.252610  42.225100   0.000192   0.011103  28.121900   0.010623   0.001026  29.218300   3.786700   6.748000  44.162100  -0.002206  -0.002269  29.411900   0.010742  -0.004981  39.627000  -0.966588  -1.167080  59.455200  -0.001917   0.007065  39.597200   0.001270  -0.005384   1.326210   2.856250   1.886250   0.091044   0.006970  12.575500  -0.901121  -2.640830   2.515340   0.000000   0.000000   0.000000  -0.824698   3.605300  -5.987430   1.667350   0.306704  -7.045760  -1.444400  -2.959330  -2.521510  -0.000000   0.000000   0.000000
 -0.811830  89.490900  -1.981440  -0.872251  -0.432194  -1.291230   0.934527   1.897840  -0.542754   1.888560   3.786480  -1.117340  -0.552177  -0.771836  -0.007509  -0.912897  -1.566290  -0.278905  -9.596630   2.558020   2.928740 -70.644700  10.648800  -4.397790   1.273070   4.802460 -18.080600   7.828180 -12.241200   6.799360  36.015300  27.438300 -54.707800 -33.814200   0.001464   0.003421 -11.907000  -0.008620  -0.001829 -33.927300   2.537820  -3.765640 -27.826900  -0.000817   0.001316 -19.479600  -0.001457  -0.000488 -28.659100  -0.580584   1.060340 -38.406200  -0.000757   0.004081 -25.578500  -0.003428   0.003906 -28.468500  -3.638320   6.666460 -38.699100   0.000224  -0.008398 -25.773600  -0.002238  -0.007125 -33.864300  -4.339910   6.434170 -51.162200   0.002405  -0.004450 -34.074100   0.000249  -0.003715  10.796400   1.267160   5.770730  69.194300   6.127150  -4.425090  -3.657070   5.006570  15.939100 -13.240200 -16.710100  -5.056800 -31.790900  23.595200  62.584900  34.966300   0.001708  -0.008094  12.483200   0.004522  -0.002408  34.034300   9.947780  14.350400  28.873200   0.007111  -0.007732  20.211200   0.003002  -0.008616  28.864100   5.047750   9.246770  42.247900   0.000191   0.011111  28.137100   0.010626   0.001020  29.225200   3.786700   6.747990  44.172600  -0.002262  -0.002335  29.419000   0.010690  -0.004966  39.635600  -0.969059  -1.169700  59.468100  -0.001985   0.007052  39.605800   0.001230  -0.005358   1.332890   2.893280   1.874950   0.094517   0.017886  12.588700  -0.907357  -2.641490   2.516420  -0.000000   0.000000   0.000000  -0.809493   3.641300  -5.954650   1.666810   0.295942  -7.079950  -1.456590  -2.948290  -2.509730  -0.000000   0.000000   0.000000
 -0.832591  89.492500  -1.997220  -0.868971  -0.477103  -1.296280   0.929659   1.930890  -0.547907   1.879360   3.852550  -1.128060  -0.555749  -0.779946  -0.007607  -0.917015  -1.581580  -0.283832  -9.602940   2.534010   2.928630 -70.635500  10.680000  -4.404270   1.266620   4.794270 -18.074200   7.831780 -12.243500   6.786220  36.029100  27.463300 -54.712800 -33.814300   0.001467   0.003404 -11.907100  -0.008617  -0.001831 -33.916800   2.536500  -3.765670 -27.818300  -0.000818   0.001321 -19.472800  -0.001456  -0.000495 -28.659100  -0.582364   1.060660 -38.388500  -0.000765   0.004070 -25.566700  -0.003442   0.003905 -28.468400  -3.638710   6.662470 -38.683500   0.000225  -0.008389 -25.763200  -0.002243  -0.007117 -33.858100  -4.337090   6.431150 -51.152800   0.002417  -0.004454 -34.067800   0.000244  -0.003730  10.786100   1.248710   5.792430  69.194300   6.166880  -4.397270  -3.665390   4.960820  15.944400 -13.268100 -16.700900  -5.088290 -31.775900  23.568000  62.584000  34.973500   0.001686  -0.008122  12.486800   0.004485  -0.002451  34.040700   9.984020  14.394000  28.885500   0.007063  -0.007696  20.219900   0.002994  -0.008566  28.891400   5.047800   9.243820  42.252100   0.000189   0.011121  28.139900   0.010627   0.001011  29.229100   3.786720   6.747980  44.178700  -0.002333  -0.002422  29.423100   0.010623  -0.004946  39.637100  -0.969514  -1.170170  59.470500  -0.002068   0.007034  39.607400   0.001180  -0.005324   1.339630   2.932430   1.865030   0.096537   0.024940  12.600000  -0.912375  -2.642140   2.517830   0.000000   0.000000   0.000000  -0.797073   3.673160  -5.911140   1.666820   0.286306  -7.122140  -1.468630  -2.932660  -2.503230   0.000000   0.000000  -0.000000
 -0.852803  89.493900  -2.013840  -0.868228  -0.517119  -1.299880   0.925883   1.959490  -0.554434   1.872340   3.909650  -1.141490  -0.561966  -0.781602  -0.007608  -0.925369  -1.581500  -0.278449  -9.610520   2.511970   2.929590 -70.628500  10.696600  -4.400850   1.264300   4.799860 -18.078500   7.840530 -12.236100   6.786220  36.044200  27.486400 -54.700000 -33.814400   0.001470   0.003385 -11.907100  -0.008623  -0.001827 -33.901100   2.526390  -3.753300 -27.805100  -0.000822   0.001324 -19.463600  -0.001455  -0.000502 -28.659100  -0.584071   1.060950 -38.375700  -0.000776   0.004058 -25.558200  -0.003461   0.003902 -28.467100  -3.639090   6.662230 -38.666000   0.000226  -0.008380 -25.751500  -0.002248  -0.007107 -33.853300  -4.338900   6.434650 -51.146000   0.002431  -0.004461 -34.063300   0.000237  -0.003749  10.773200   1.235220   5.817660  69.190400   6.186400  -4.375440  -3.673690   4.930120  15.948000 -13.298200 -16.698500  -5.086980 -31.766700  23.567000  62.582900  34.989700   0.001653  -0.008168  12.494800   0.004445  -0.002502  34.043200  10.008600  14.425500  28.892500   0.007009  -0.007655  20.224800   0.002985  -0.008510  28.914800   5.047810   9.243830  42.241600   0.000188   0.011134  28.132900   0.010627   0.001002  29.224500   3.786730   6.747990  44.172100  -0.002417  -0.002526  29.418300   0.010548  -0.004921  39.622200  -0.965234  -1.165620  59.448100  -0.002160   0.007013  39.592400   0.001123  -0.005285   1.346230   2.977210   1.857730   0.098363   0.010310  12.606400  -0.914402  -2.623080   2.519430   0.000000   0.000000  -0.000000  -0.784533   3.704990  -5.860480   1.666940   0.278619  -7.163610  -1.481360  -2.925440  -2.507200  -0.000000   0.000000   0.000000
